<svg width="50" height="50" viewBox="0 0 50 50" fill="none" xmlns="http://www.w3.org/2000/svg">
<path d="M8.33203 29.1667V38.3334C8.33203 38.6649 8.46373 38.9829 8.69815 39.2173C8.93257 39.4517 9.25051 39.5834 9.58203 39.5834H20.832M39.582 29.1667V38.3334C39.582 38.6649 39.4503 38.9829 39.2159 39.2173C38.9815 39.4517 38.6635 39.5834 38.332 39.5834H29.1654M29.1654 10.4167H38.332C38.6635 10.4167 38.9815 10.5484 39.2159 10.7829C39.4503 11.0173 39.582 11.3352 39.582 11.6667V20.8334M8.33203 20.8334V11.6667C8.33203 11.3352 8.46373 11.0173 8.69815 10.7829C8.93257 10.5484 9.25051 10.4167 9.58203 10.4167H20.832M29.1654 39.5834V41.6668C29.1654 42.7718 28.7264 43.8316 27.945 44.613C27.1636 45.3944 26.1038 45.8334 24.9987 45.8334C23.8936 45.8334 22.8338 45.3944 22.0524 44.613C21.271 43.8316 20.832 42.7718 20.832 41.6668V39.5834M8.33203 20.8334H10.4154C11.5204 20.8334 12.5802 21.2724 13.3616 22.0538C14.143 22.8352 14.582 23.895 14.582 25.0001C14.582 26.1052 14.143 27.165 13.3616 27.9464C12.5802 28.7278 11.5204 29.1667 10.4154 29.1667H8.33203M39.582 20.8334H41.6654C42.7704 20.8334 43.8302 21.2724 44.6116 22.0538C45.393 22.8352 45.832 23.895 45.832 25.0001C45.832 26.1052 45.393 27.165 44.6116 27.9464C43.8302 28.7278 42.7704 29.1667 41.6654 29.1667H39.582M29.1654 10.4167V8.33342C29.1654 7.22835 28.7264 6.16854 27.945 5.38714C27.1636 4.60573 26.1038 4.16675 24.9987 4.16675C23.8936 4.16675 22.8338 4.60573 22.0524 5.38714C21.271 6.16854 20.832 7.22835 20.832 8.33342V10.4167" stroke="url(#paint0_linear_311_3952)" stroke-width="1.5" stroke-linecap="round" stroke-linejoin="round"/>
<defs>
<linearGradient id="paint0_linear_311_3952" x1="8.33203" y1="25.0001" x2="45.832" y2="25.0001" gradientUnits="userSpaceOnUse">
<stop stop-color="#0383CA"/>
<stop offset="1" stop-color="#EF3A61"/>
</linearGradient>
</defs>
</svg>
