<svg width="50" height="50" viewBox="0 0 50 50" fill="none" xmlns="http://www.w3.org/2000/svg">
<path d="M42.3393 1.5625H44.7893C45.7558 1.5625 46.6828 1.94633 47.3665 2.6296C48.0502 3.31288 48.4345 4.23968 48.4351 5.20625V7.65833C48.4367 13.3688 46.2569 18.8642 42.3413 23.0208L39.783 25.7375C38.7248 26.859 37.6153 27.931 36.458 28.95V39.4458C36.458 40.7271 35.7851 41.9125 34.6872 42.5708L25.283 48.2146C25.0695 48.3428 24.8285 48.4182 24.5799 48.4343C24.3314 48.4505 24.0826 48.407 23.8543 48.3076C23.626 48.2081 23.4248 48.0555 23.2674 47.8625C23.1101 47.6694 23.0011 47.4416 22.9497 47.1979L20.9434 37.6729C20.8398 37.5906 20.7423 37.5008 20.6518 37.4042L16.7518 33.25L12.5976 29.3479C12.501 29.2574 12.4112 29.1599 12.3288 29.0562L2.80592 27.05C2.56189 26.9991 2.33358 26.8905 2.14006 26.7334C1.94654 26.5763 1.79342 26.3751 1.6935 26.1467C1.59359 25.9183 1.54976 25.6693 1.56569 25.4206C1.58163 25.1718 1.65685 24.9304 1.78508 24.7167L7.43092 15.3125C8.08925 14.2146 9.27467 13.5417 10.5559 13.5417H21.0497C22.0688 12.3858 23.1407 11.2777 24.2622 10.2208L26.9788 7.65833C31.1341 3.74304 36.6279 1.56254 42.3372 1.5625H42.3393ZM29.1226 9.93333L26.4059 12.4937C23.8494 14.9031 21.5745 17.5946 19.6247 20.5167L15.0559 27.3708L18.9288 31.0042L18.9997 31.075L22.6309 34.9458L29.4809 30.3792C32.4054 28.4284 35.099 26.152 37.5101 23.5937L40.0684 20.8792C43.4382 17.302 45.314 12.5727 45.3122 7.65833V5.20833C45.3122 5.0702 45.2573 4.93772 45.1596 4.84005C45.062 4.74237 44.9295 4.6875 44.7913 4.6875H42.3393C37.4261 4.68735 32.6983 6.56383 29.1226 9.93333ZM13.5434 43.75C11.0247 46.2687 5.41633 46.7604 3.66217 46.8542C3.59342 46.858 3.52462 46.8475 3.4601 46.8235C3.39557 46.7995 3.33669 46.7624 3.28717 46.7146C3.23934 46.6651 3.20225 46.6062 3.17823 46.5417C3.15421 46.4771 3.14378 46.4083 3.14758 46.3396C3.24133 44.5854 3.733 38.9771 6.25175 36.4583C8.12675 34.5833 11.6684 34.5833 13.5434 36.4583C15.4184 38.3333 15.4184 41.875 13.5434 43.75ZM12.3101 25.8583L17.0226 18.7854C17.5031 18.0646 18.0011 17.3583 18.5163 16.6667H10.5559C10.4662 16.6667 10.378 16.69 10.2999 16.7341C10.2218 16.7783 10.1564 16.8419 10.1101 16.9187L5.5955 24.4437L12.3101 25.8583ZM33.3351 31.4833C32.6406 32 31.9337 32.4986 31.2143 32.9792L24.1455 37.6917L25.558 44.4062L33.083 39.8917C33.1599 39.8454 33.2235 39.78 33.2676 39.7019C33.3118 39.6238 33.335 39.5356 33.3351 39.4458V31.4833ZM36.4601 16.6667C36.46 17.0772 36.379 17.4837 36.2217 17.8629C36.0645 18.2421 35.8341 18.5866 35.5438 18.8768C35.2534 19.167 34.9087 19.3971 34.5294 19.5541C34.15 19.7111 33.7435 19.7918 33.333 19.7917C32.9225 19.7915 32.516 19.7105 32.1368 19.5533C31.7576 19.3961 31.413 19.1657 31.1229 18.8753C30.8327 18.585 30.6025 18.2403 30.4456 17.8609C30.2886 17.4816 30.2079 17.0751 30.208 16.6646C30.2083 15.8355 30.5379 15.0405 31.1243 14.4544C31.7108 13.8684 32.506 13.5393 33.3351 13.5396C34.1642 13.5399 34.9592 13.8695 35.5452 14.4559C36.1313 15.0424 36.4604 15.8376 36.4601 16.6667Z" fill="url(#paint0_linear_311_3963)"/>
<defs>
<linearGradient id="paint0_linear_311_3963" x1="1.5625" y1="25.0001" x2="48.4351" y2="25.0001" gradientUnits="userSpaceOnUse">
<stop stop-color="#0383CA"/>
<stop offset="1" stop-color="#EF3A61"/>
</linearGradient>
</defs>
</svg>
