<svg width="50" height="50" viewBox="0 0 50 50" fill="none" xmlns="http://www.w3.org/2000/svg">
<path d="M32.0911 17.7794C30.6529 17.7794 29.487 16.6135 29.487 15.1752C29.487 13.737 30.6529 12.571 32.0911 12.571C33.5294 12.571 34.6953 13.737 34.6953 15.1752C34.6953 16.6135 33.5294 17.7794 32.0911 17.7794Z" fill="url(#paint0_linear_311_3935)"/>
<path d="M22.724 16.0855C21.2857 16.0855 20.1198 14.9196 20.1198 13.4814C20.1198 12.0431 21.2857 10.8772 22.724 10.8772C24.1622 10.8772 25.3281 12.0431 25.3281 13.4814C25.3281 14.9196 24.1622 16.0855 22.724 16.0855Z" fill="url(#paint1_linear_311_3935)"/>
<path d="M15.4271 21.7501C13.9888 21.7501 12.8229 20.5842 12.8229 19.1459C12.8229 17.7077 13.9888 16.5417 15.4271 16.5417C16.8653 16.5417 18.0312 17.7077 18.0312 19.1459C18.0312 20.5842 16.8653 21.7501 15.4271 21.7501Z" fill="url(#paint2_linear_311_3935)"/>
<path d="M13.4076 30.5335C11.9693 30.5335 10.8034 29.3676 10.8034 27.9294C10.8034 26.4911 11.9693 25.3252 13.4076 25.3252C14.8458 25.3252 16.0117 26.4911 16.0117 27.9294C16.0117 29.3676 14.8458 30.5335 13.4076 30.5335Z" fill="url(#paint3_linear_311_3935)"/>
<path d="M18.0286 38.4334C16.5904 38.4334 15.4245 37.2675 15.4245 35.8293C15.4245 34.391 16.5904 33.2251 18.0286 33.2251C19.4669 33.2251 20.6328 34.391 20.6328 35.8293C20.6328 37.2675 19.4669 38.4334 18.0286 38.4334Z" fill="url(#paint4_linear_311_3935)"/>
<path d="M44.2721 25.0001C44.2721 21.1887 43.1419 17.4629 41.0244 14.2938C38.9069 11.1247 35.8972 8.65473 32.3759 7.19616C28.8547 5.7376 24.9799 5.35597 21.2418 6.09954C17.5036 6.84311 14.0698 8.67848 11.3748 11.3736C8.6797 14.0686 6.84433 17.5024 6.10076 21.2405C5.35719 24.9787 5.73882 28.8534 7.19738 32.3747C8.65595 35.896 11.1259 38.9057 14.295 41.0232C17.4641 43.1407 21.1899 44.2709 25.0013 44.2709C27.7471 44.2709 29.6346 41.6043 29.8534 38.8668L30.0971 35.798C30.2157 34.3148 30.8594 32.9226 31.9127 31.8717C32.9659 30.8207 34.3596 30.18 35.843 30.0647L39.2826 29.7959C41.9492 29.5876 44.2721 27.673 44.2721 25.0001Z" stroke="url(#paint5_linear_311_3935)" stroke-width="1.5" stroke-linejoin="round"/>
<defs>
<linearGradient id="paint0_linear_311_3935" x1="34.6953" y1="15.1752" x2="29.487" y2="15.1752" gradientUnits="userSpaceOnUse">
<stop stop-color="#0383CA"/>
<stop offset="1" stop-color="#EF3A61"/>
</linearGradient>
<linearGradient id="paint1_linear_311_3935" x1="25.3281" y1="13.4814" x2="20.1198" y2="13.4814" gradientUnits="userSpaceOnUse">
<stop stop-color="#0383CA"/>
<stop offset="1" stop-color="#EF3A61"/>
</linearGradient>
<linearGradient id="paint2_linear_311_3935" x1="18.0312" y1="19.1459" x2="12.8229" y2="19.1459" gradientUnits="userSpaceOnUse">
<stop stop-color="#0383CA"/>
<stop offset="1" stop-color="#EF3A61"/>
</linearGradient>
<linearGradient id="paint3_linear_311_3935" x1="16.0117" y1="27.9294" x2="10.8034" y2="27.9294" gradientUnits="userSpaceOnUse">
<stop stop-color="#0383CA"/>
<stop offset="1" stop-color="#EF3A61"/>
</linearGradient>
<linearGradient id="paint4_linear_311_3935" x1="20.6328" y1="35.8293" x2="15.4245" y2="35.8293" gradientUnits="userSpaceOnUse">
<stop stop-color="#0383CA"/>
<stop offset="1" stop-color="#EF3A61"/>
</linearGradient>
<linearGradient id="paint5_linear_311_3935" x1="5.73047" y1="25.0001" x2="44.2721" y2="25.0001" gradientUnits="userSpaceOnUse">
<stop stop-color="#0383CA"/>
<stop offset="1" stop-color="#EF3A61"/>
</linearGradient>
</defs>
</svg>
