<svg width="50" height="48" viewBox="0 0 50 48" fill="none" xmlns="http://www.w3.org/2000/svg">
<path d="M24.5039 11C24.9017 11 25.2833 11.158 25.5646 11.4393C25.8459 11.7206 26.0039 12.1022 26.0039 12.5V13.376C27.9839 13.676 29.5039 15.388 29.5039 17.454C29.5039 17.8518 29.3459 18.2334 29.0646 18.5147C28.7833 18.796 28.4017 18.954 28.0039 18.954C27.6061 18.954 27.2246 18.796 26.9433 18.5147C26.6619 18.2334 26.5039 17.8518 26.5039 17.454C26.5039 17.1554 26.3853 16.869 26.1741 16.6578C25.9629 16.4466 25.6765 16.328 25.3779 16.328H24.0039C23.6061 16.328 23.2246 16.486 22.9433 16.7673C22.6619 17.0486 22.5039 17.4302 22.5039 17.828V18.358C22.5037 18.6637 22.5968 18.9621 22.7709 19.2134C22.9449 19.4647 23.1916 19.6568 23.4779 19.764L26.5839 20.928C27.4417 21.2497 28.1809 21.8255 28.7027 22.5785C29.2245 23.3315 29.504 24.2259 29.5039 25.142V25.672C29.504 26.6918 29.1578 27.6813 28.5219 28.4786C27.886 29.2758 26.9982 29.8334 26.0039 30.06V31C26.0039 31.3978 25.8459 31.7794 25.5646 32.0607C25.2833 32.342 24.9017 32.5 24.5039 32.5C24.1061 32.5 23.7246 32.342 23.4433 32.0607C23.1619 31.7794 23.0039 31.3978 23.0039 31V30.124C22.029 29.9756 21.1397 29.4825 20.4975 28.7342C19.8553 27.9859 19.5027 27.0321 19.5039 26.046C19.5039 25.6482 19.6619 25.2666 19.9432 24.9853C20.2246 24.704 20.6061 24.546 21.0039 24.546C21.4017 24.546 21.7833 24.704 22.0646 24.9853C22.3459 25.2666 22.5039 25.6482 22.5039 26.046C22.5039 26.668 23.0079 27.172 23.6299 27.172H25.0039C25.4017 27.172 25.7833 27.014 26.0646 26.7327C26.3459 26.4514 26.5039 26.0698 26.5039 25.672V25.142C26.5038 24.8367 26.4104 24.5386 26.2364 24.2877C26.0623 24.0369 25.8159 23.8451 25.5299 23.738L22.4239 22.572C21.5661 22.2503 20.8269 21.6745 20.3051 20.9215C19.7833 20.1685 19.5038 19.2741 19.5039 18.358V17.828C19.5038 16.8082 19.85 15.8187 20.4859 15.0214C21.1218 14.2242 22.0096 13.6666 23.0039 13.44V12.5C23.0039 12.1022 23.1619 11.7206 23.4433 11.4393C23.7246 11.158 24.1061 11 24.5039 11Z" fill="url(#paint0_linear_264_3075)"/>
<path fill-rule="evenodd" clip-rule="evenodd" d="M26.3742 4.70599C25.787 4.43753 25.1489 4.29858 24.5032 4.29858C23.8575 4.29858 23.2194 4.43753 22.6322 4.70599L11.1842 9.94199C10.3998 10.3003 9.73492 10.8766 9.26866 11.602C8.80239 12.3275 8.5544 13.1716 8.5542 14.034V24.964C8.5542 28.078 9.5102 31.17 11.5162 33.652C13.1162 35.632 15.2902 38.148 17.5122 40.18C18.6222 41.196 19.7802 42.124 20.9162 42.806C22.0222 43.472 23.2642 44 24.5022 44C25.7422 44 26.9822 43.472 28.0902 42.806C29.2262 42.124 30.3842 41.196 31.4942 40.18C33.7162 38.148 35.8882 35.634 37.4902 33.652C39.4962 31.17 40.4502 28.078 40.4502 24.964V14.034C40.4502 12.274 39.4242 10.674 37.8222 9.94199L26.3742 4.70599ZM23.8802 7.43399C24.076 7.3444 24.2888 7.29803 24.5042 7.29803C24.7195 7.29803 24.9324 7.3444 25.1282 7.43399L36.5762 12.67C36.8375 12.7895 37.059 12.9816 37.2143 13.2235C37.3696 13.4653 37.4522 13.7466 37.4522 14.034V24.964C37.4522 27.472 36.6842 29.878 35.1582 31.766C33.5942 33.702 31.5322 36.082 29.4722 37.966C28.4402 38.91 27.4462 39.694 26.5462 40.236C25.6182 40.794 24.9402 41 24.5062 41C24.0702 41 23.3922 40.794 22.4622 40.236C21.5622 39.696 20.5682 38.91 19.5382 37.966C17.4782 36.082 15.4162 33.702 13.8522 31.766C12.3262 29.878 11.5562 27.472 11.5562 24.966V14.032C11.5562 13.7446 11.6388 13.4633 11.7941 13.2215C11.9494 12.9796 12.1709 12.7875 12.4322 12.668L23.8802 7.43399Z" fill="url(#paint1_linear_264_3075)"/>
<defs>
<linearGradient id="paint0_linear_264_3075" x1="19.5039" y1="21.75" x2="29.5039" y2="21.75" gradientUnits="userSpaceOnUse">
<stop stop-color="#0383CA"/>
<stop offset="1" stop-color="#EF3A61"/>
</linearGradient>
<linearGradient id="paint1_linear_264_3075" x1="8.5542" y1="24.1493" x2="40.4502" y2="24.1493" gradientUnits="userSpaceOnUse">
<stop stop-color="#0383CA"/>
<stop offset="1" stop-color="#EF3A61"/>
</linearGradient>
</defs>
</svg>
