<svg width="50" height="50" viewBox="0 0 50 50" fill="none" xmlns="http://www.w3.org/2000/svg">
<path d="M17.8645 35.4008H42.2859C43.1011 35.4008 43.8127 34.7311 43.8127 33.8311C43.8127 32.9311 43.1011 32.2615 42.2859 32.2615H18.2198C17.027 32.2615 16.2948 31.424 16.1064 30.1481L15.7716 27.9508H42.327C45.3823 27.9508 46.952 26.0669 47.3913 23.0749L49.0654 12.0044C49.1103 11.7415 49.1383 11.4761 49.1493 11.2097C49.1493 10.2053 48.3957 9.51418 47.2448 9.51418H13.0725L12.6743 6.85704C12.4654 5.24543 11.8796 4.42847 9.74572 4.42847H2.39929C1.56268 4.42847 0.851074 5.1624 0.851074 5.99989C0.851074 6.85704 1.56268 7.59007 2.40018 7.59007H9.4725L12.8207 30.5669C13.2609 33.5383 14.8296 35.4008 17.8645 35.4008ZM45.5913 12.674L44.1073 22.6981C43.9395 23.9954 43.2493 24.791 42.0145 24.791L15.3127 24.8115L13.5332 12.674H45.5913ZM19.518 45.5713C19.9643 45.575 20.4068 45.4898 20.8198 45.3208C21.2327 45.1517 21.6079 44.9021 21.9235 44.5866C22.239 44.271 22.4886 43.8958 22.6577 43.4829C22.8267 43.0699 22.9119 42.6274 22.9082 42.1811C22.9102 41.7354 22.8239 41.2936 22.6543 40.8814C22.4846 40.4692 22.2349 40.0947 21.9197 39.7794C21.6045 39.4642 21.23 39.2146 20.8178 39.0449C20.4056 38.8753 19.9638 38.789 19.518 38.791C17.6145 38.791 16.1073 40.2981 16.1073 42.1811C16.1073 44.0856 17.6145 45.5713 19.518 45.5713ZM39.0841 45.5713C40.9886 45.5713 42.4948 44.0856 42.4948 42.1811C42.4948 40.2972 40.9886 38.791 39.0841 38.791C37.2011 38.791 35.6734 40.2981 35.6734 42.1811C35.6734 44.0856 37.2011 45.5713 39.0841 45.5713Z" fill="url(#paint0_linear_264_3102)"/>
<defs>
<linearGradient id="paint0_linear_264_3102" x1="0.851074" y1="24.9999" x2="49.1493" y2="24.9999" gradientUnits="userSpaceOnUse">
<stop stop-color="#0383CA"/>
<stop offset="1" stop-color="#EF3A61"/>
</linearGradient>
</defs>
</svg>
