<svg width="51" height="50" viewBox="0 0 51 50" fill="none" xmlns="http://www.w3.org/2000/svg">
<path fill-rule="evenodd" clip-rule="evenodd" d="M1.79316 12.8124C1.257 13.0646 0.803669 13.4641 0.486142 13.9644C0.168614 14.4646 0 15.0449 0 15.6374C0 16.2299 0.168614 16.8102 0.486142 17.3104C0.803669 17.8107 1.257 18.2102 1.79316 18.4624L6.26191 20.5718V32.8218C6.26191 35.1405 7.01504 37.728 9.21191 39.3218C11.9807 41.3218 17.0244 43.7593 25.0244 43.7593C33.0244 43.7593 38.0557 41.3062 40.8369 39.3218C43.0338 37.7343 43.7869 35.1655 43.7869 32.8218V20.5718L46.9119 19.0937V32.8124C46.9119 33.2268 47.0765 33.6242 47.3696 33.9173C47.6626 34.2103 48.06 34.3749 48.4744 34.3749C48.8888 34.3749 49.2862 34.2103 49.5793 33.9173C49.8723 33.6242 50.0369 33.2268 50.0369 32.8124V15.6249C50.037 15.0331 49.8691 14.4534 49.5527 13.9533C49.2362 13.4532 48.7843 13.0532 48.2494 12.7999L30.3744 4.36241C28.7038 3.57237 26.8787 3.1626 25.0307 3.1626C23.1826 3.1626 21.3576 3.57237 19.6869 4.36241L1.81191 12.7999L1.79316 12.8124ZM9.38691 32.8124V22.0312L19.6682 26.9062C21.3388 27.6962 23.1639 28.106 25.0119 28.106C26.86 28.106 28.685 27.6962 30.3557 26.9062L40.6369 22.0312V32.8124C40.6369 34.5499 40.0744 35.9687 38.9807 36.7499C36.7182 38.3843 32.3244 40.6249 25.0119 40.6249C17.6994 40.6249 13.2932 38.3999 11.0432 36.7499C9.95254 35.9624 9.38691 34.5343 9.38691 32.8124ZM21.0119 7.18741C22.2622 6.59515 23.6284 6.28792 25.0119 6.28792C26.3954 6.28792 27.7616 6.59515 29.0119 7.18741L46.8869 15.6249L29.0119 24.0624C27.7616 24.6547 26.3954 24.9619 25.0119 24.9619C23.6284 24.9619 22.2622 24.6547 21.0119 24.0624L3.13691 15.6249L21.0119 7.18741Z" fill="url(#paint0_linear_264_3093)"/>
<defs>
<linearGradient id="paint0_linear_264_3093" x1="0" y1="23.4609" x2="50.0369" y2="23.4609" gradientUnits="userSpaceOnUse">
<stop stop-color="#0383CA"/>
<stop offset="1" stop-color="#EF3A61"/>
</linearGradient>
</defs>
</svg>
