<svg width="50" height="50" viewBox="0 0 50 50" fill="none" xmlns="http://www.w3.org/2000/svg">
<path d="M8.47168 24.9999H7.51953L25 42.4804L39.3555 28.1249H43.7744L25 46.8994L3.88184 25.8056C3.31217 25.2359 2.80762 24.6256 2.36816 23.9746C1.92871 23.3235 1.54622 22.6236 1.2207 21.8749H7.15332L14.0625 14.9902L25 25.9033L32.8125 18.1152L36.5967 21.8749H45.2637C45.7845 21.0449 46.1833 20.166 46.46 19.2382C46.7367 18.3105 46.875 17.3583 46.875 16.3818C46.875 14.9658 46.6146 13.6474 46.0938 12.4267C45.5729 11.206 44.8486 10.1481 43.9209 9.25287C42.9932 8.35769 41.9189 7.64968 40.6982 7.12885C39.4775 6.60801 38.151 6.3476 36.7188 6.3476C35.3516 6.3476 34.139 6.55919 33.0811 6.98236C32.0231 7.40554 31.0465 7.9752 30.1514 8.69135C29.2562 9.40749 28.4017 10.1969 27.5879 11.0595C26.7741 11.9221 25.9115 12.8255 25 13.7695C24.1211 12.8906 23.2666 12.0035 22.4365 11.1083C21.6064 10.2132 20.7438 9.40749 19.8486 8.69135C18.9535 7.9752 17.9688 7.38927 16.8945 6.93354C15.8203 6.47781 14.6159 6.24994 13.2812 6.24994C11.8815 6.24994 10.5713 6.51036 9.35059 7.03119C8.12988 7.55203 7.05566 8.27631 6.12793 9.20404C5.2002 10.1318 4.47591 11.206 3.95508 12.4267C3.43424 13.6474 3.16569 14.9658 3.14941 16.3818C3.14941 17.1468 3.23893 17.9361 3.41797 18.7499H0.219727C0.138346 18.3593 0.0895182 17.9687 0.0732422 17.5781C0.0569661 17.1874 0.0406901 16.7968 0.0244141 16.4062C0.0244141 14.567 0.366211 12.8417 1.0498 11.2304C1.7334 9.61908 2.67741 8.21121 3.88184 7.00678C5.08626 5.80235 6.49414 4.85834 8.10547 4.17475C9.7168 3.49115 11.4421 3.14122 13.2812 3.12494C14.6322 3.12494 15.8366 3.27956 16.8945 3.58881C17.9525 3.89805 18.929 4.32123 19.8242 4.85834C20.7194 5.39545 21.582 6.05463 22.4121 6.83588C23.2422 7.61713 24.1048 8.45535 25 9.35053C25.8952 8.43907 26.7497 7.60085 27.5635 6.83588C28.3773 6.07091 29.2399 5.41986 30.1514 4.88275C31.0628 4.34565 32.0475 3.91433 33.1055 3.58881C34.1634 3.26329 35.3678 3.10867 36.7188 3.12494C38.5417 3.12494 40.2588 3.46674 41.8701 4.15033C43.4814 4.83393 44.8812 5.77794 46.0693 6.98236C47.2575 8.18679 48.2015 9.58653 48.9014 11.1816C49.6012 12.7766 49.9512 14.4938 49.9512 16.3329C49.9512 17.9117 49.6745 19.4417 49.1211 20.9228C48.5677 22.4039 47.7783 23.763 46.7529 24.9999H35.2783L32.8125 22.5097L25 30.3466L14.0625 19.3847L8.47168 24.9999Z" fill="url(#paint0_linear_264_3084)"/>
<defs>
<linearGradient id="paint0_linear_264_3084" x1="0.0244141" y1="25.0116" x2="49.9512" y2="25.0116" gradientUnits="userSpaceOnUse">
<stop stop-color="#0383CA"/>
<stop offset="1" stop-color="#EF3A61"/>
</linearGradient>
</defs>
</svg>
