<svg width="50" height="54" viewBox="0 0 50 54" fill="none" xmlns="http://www.w3.org/2000/svg">
<path d="M49.21 0.249608C49.4514 0.398923 49.6507 0.607427 49.789 0.855352C49.9272 1.10328 49.9999 1.38241 50 1.66627V51.6663C50 52.1083 49.8244 52.5322 49.5118 52.8448C49.1993 53.1574 48.7754 53.3329 48.3333 53.3329H38.3333C37.8913 53.3329 37.4674 53.1574 37.1548 52.8448C36.8423 52.5322 36.6667 52.1083 36.6667 51.6663V46.6663H33.3333V51.6663C33.3333 52.1083 33.1577 52.5322 32.8452 52.8448C32.5326 53.1574 32.1087 53.3329 31.6667 53.3329H1.66667C1.22464 53.3329 0.800716 53.1574 0.488155 52.8448C0.175595 52.5322 0 52.1083 0 51.6663V33.3329C0.000265489 32.9833 0.110494 32.6426 0.315083 32.359C0.519673 32.0755 0.80826 31.8634 1.14 31.7529L20 25.4663V14.9996C20 14.6903 20.0861 14.3872 20.2485 14.124C20.411 13.8609 20.6435 13.6482 20.92 13.5096L47.5867 0.176275C47.841 0.0489609 48.1237 -0.011138 48.4079 0.00169827C48.692 0.0145346 48.9682 0.0998789 49.21 0.249608ZM20 28.9796L3.33333 34.5329V49.9996H20V28.9796ZM23.3333 49.9996H30V44.9996C30 44.5576 30.1756 44.1337 30.4882 43.8211C30.8007 43.5085 31.2246 43.3329 31.6667 43.3329H38.3333C38.7754 43.3329 39.1993 43.5085 39.5118 43.8211C39.8244 44.1337 40 44.5576 40 44.9996V49.9996H46.6667V4.36294L23.3333 16.0296V49.9996Z" fill="url(#paint0_linear_264_3129)"/>
<path d="M6.6665 36.6667H9.99984V40H6.6665V36.6667ZM13.3332 36.6667H16.6665V40H13.3332V36.6667ZM6.6665 43.3333H9.99984V46.6667H6.6665V43.3333ZM13.3332 43.3333H16.6665V46.6667H13.3332V43.3333ZM26.6665 30H29.9998V33.3333H26.6665V30ZM33.3332 30H36.6665V33.3333H33.3332V30ZM26.6665 36.6667H29.9998V40H26.6665V36.6667ZM33.3332 36.6667H36.6665V40H33.3332V36.6667ZM39.9998 30H43.3332V33.3333H39.9998V30ZM39.9998 36.6667H43.3332V40H39.9998V36.6667ZM26.6665 23.3333H29.9998V26.6667H26.6665V23.3333ZM33.3332 23.3333H36.6665V26.6667H33.3332V23.3333ZM39.9998 23.3333H43.3332V26.6667H39.9998V23.3333ZM26.6665 16.6667H29.9998V20H26.6665V16.6667ZM33.3332 16.6667H36.6665V20H33.3332V16.6667ZM39.9998 16.6667H43.3332V20H39.9998V16.6667ZM39.9998 10H43.3332V13.3333H39.9998V10Z" fill="url(#paint1_linear_264_3129)"/>
<defs>
<linearGradient id="paint0_linear_264_3129" x1="0" y1="26.6665" x2="50" y2="26.6665" gradientUnits="userSpaceOnUse">
<stop stop-color="#0383CA"/>
<stop offset="1" stop-color="#EF3A61"/>
</linearGradient>
<linearGradient id="paint1_linear_264_3129" x1="6.6665" y1="28.3333" x2="43.3332" y2="28.3333" gradientUnits="userSpaceOnUse">
<stop stop-color="#0383CA"/>
<stop offset="1" stop-color="#EF3A61"/>
</linearGradient>
</defs>
</svg>
