<svg width="50" height="50" viewBox="0 0 50 50" fill="none" xmlns="http://www.w3.org/2000/svg">
<path d="M36.1762 36.175C32.6599 39.6913 27.8908 41.6668 22.918 41.6668C17.9452 41.6668 13.176 39.6913 9.65972 36.175C6.14341 32.6587 4.16797 27.8896 4.16797 22.9167C4.16797 17.9439 6.14341 13.1748 9.65972 9.6585C13.176 6.14219 17.9452 4.16675 22.918 4.16675C27.8908 4.16675 32.6599 6.14219 36.1762 9.6585C39.6925 13.1748 41.668 17.9439 41.668 22.9167C41.668 27.8896 39.6925 32.6587 36.1762 36.175ZM36.1762 36.175L45.8346 45.8334" stroke="url(#paint0_linear_311_3924)" stroke-width="1.5"/>
<defs>
<linearGradient id="paint0_linear_311_3924" x1="4.16797" y1="25.0001" x2="45.8346" y2="25.0001" gradientUnits="userSpaceOnUse">
<stop stop-color="#0383CA"/>
<stop offset="1" stop-color="#EF3A61"/>
</linearGradient>
</defs>
</svg>
