<svg width="50" height="50" viewBox="0 0 50 50" fill="none" xmlns="http://www.w3.org/2000/svg">
<path d="M29.1668 38.1563C26.8818 37.0676 24.9174 35.4061 23.4647 33.3334H6.25016V8.33341H43.7502V13.0501C45.438 14.2341 46.8577 15.7603 47.9168 17.5292V8.33341C47.9135 7.22936 47.4735 6.17147 46.6928 5.39078C45.9121 4.61009 44.8542 4.17005 43.7502 4.16675H6.25016C5.14611 4.17005 4.08822 4.61009 3.30753 5.39078C2.52684 6.17147 2.08679 7.22936 2.0835 8.33341V33.3334C2.08679 34.4375 2.52684 35.4954 3.30753 36.2761C4.08822 37.0567 5.14611 37.4968 6.25016 37.5001H20.8335V41.6667H16.6668V45.8334H33.3335V41.6667H29.1668V38.1563Z" fill="url(#paint0_linear_264_3140)"/>
<path d="M35.4165 12.5C32.9442 12.5 30.5275 13.2331 28.4719 14.6066C26.4163 15.9801 24.8141 17.9324 23.868 20.2165C22.9219 22.5005 22.6744 25.0139 23.1567 27.4386C23.639 29.8634 24.8295 32.0907 26.5777 33.8388C28.3258 35.587 30.5531 36.7775 32.9779 37.2598C35.4026 37.7421 37.916 37.4946 40.2001 36.5485C42.4841 35.6024 44.4364 34.0002 45.8099 31.9446C47.1834 29.889 47.9165 27.4723 47.9165 25C47.9165 21.6848 46.5996 18.5054 44.2553 16.1612C41.9111 13.817 38.7317 12.5 35.4165 12.5ZM35.4165 33.3333C33.7683 33.3333 32.1572 32.8446 30.7868 31.9289C29.4163 31.0132 28.3482 29.7117 27.7175 28.189C27.0868 26.6663 26.9218 24.9908 27.2433 23.3742C27.5648 21.7577 28.3585 20.2729 29.524 19.1074C30.6894 17.942 32.1742 17.1483 33.7908 16.8268C35.4073 16.5052 37.0828 16.6703 38.6055 17.301C40.1283 17.9317 41.4297 18.9998 42.3454 20.3702C43.2611 21.7407 43.7498 23.3518 43.7498 25C43.7471 27.2093 42.8682 29.3273 41.306 30.8895C39.7438 32.4517 37.6258 33.3306 35.4165 33.3333Z" fill="url(#paint1_linear_264_3140)"/>
<path d="M35.4168 27.0834C36.5674 27.0834 37.5002 26.1507 37.5002 25.0001C37.5002 23.8495 36.5674 22.9167 35.4168 22.9167C34.2662 22.9167 33.3335 23.8495 33.3335 25.0001C33.3335 26.1507 34.2662 27.0834 35.4168 27.0834Z" fill="url(#paint2_linear_264_3140)"/>
<defs>
<linearGradient id="paint0_linear_264_3140" x1="2.0835" y1="25.0001" x2="47.9168" y2="25.0001" gradientUnits="userSpaceOnUse">
<stop stop-color="#0383CA"/>
<stop offset="1" stop-color="#EF3A61"/>
</linearGradient>
<linearGradient id="paint1_linear_264_3140" x1="22.9165" y1="25" x2="47.9165" y2="25" gradientUnits="userSpaceOnUse">
<stop stop-color="#0383CA"/>
<stop offset="1" stop-color="#EF3A61"/>
</linearGradient>
<linearGradient id="paint2_linear_264_3140" x1="33.3335" y1="25.0001" x2="37.5002" y2="25.0001" gradientUnits="userSpaceOnUse">
<stop stop-color="#0383CA"/>
<stop offset="1" stop-color="#EF3A61"/>
</linearGradient>
</defs>
</svg>
