<svg width="36" height="28" viewBox="0 0 36 28" fill="none" xmlns="http://www.w3.org/2000/svg">
<path d="M5.68421 0H30.3158C31.8233 0 33.2691 0.589998 34.3351 1.6402C35.4011 2.69041 36 4.11479 36 5.6V22.4C36 23.8852 35.4011 25.3096 34.3351 26.3598C33.2691 27.41 31.8233 28 30.3158 28H5.68421C4.17666 28 2.73086 27.41 1.66487 26.3598C0.598871 25.3096 0 23.8852 0 22.4V5.6C0 4.11479 0.598871 2.69041 1.66487 1.6402C2.73086 0.589998 4.17666 0 5.68421 0ZM5.68421 1.86667C4.73684 1.86667 3.90316 2.184 3.25895 2.744L18 12.1333L32.7411 2.744C32.0968 2.184 31.2632 1.86667 30.3158 1.86667H5.68421ZM18 14.392L2.14105 4.256C1.98947 4.66667 1.89474 5.13333 1.89474 5.6V22.4C1.89474 23.3901 2.29398 24.3397 3.00465 25.0399C3.71531 25.74 4.67918 26.1333 5.68421 26.1333H30.3158C31.3208 26.1333 32.2847 25.74 32.9954 25.0399C33.706 24.3397 34.1053 23.3901 34.1053 22.4V5.6C34.1053 5.13333 34.0105 4.66667 33.859 4.256L18 14.392Z" fill="url(#paint0_linear_311_4207)"/>
<defs>
<linearGradient id="paint0_linear_311_4207" x1="0" y1="14" x2="36" y2="14" gradientUnits="userSpaceOnUse">
<stop stop-color="#0383CA"/>
<stop offset="1" stop-color="#EF3A61"/>
</linearGradient>
</defs>
</svg>
