<svg width="32" height="32" viewBox="0 0 32 32" fill="none" xmlns="http://www.w3.org/2000/svg">
<path d="M29.4737 32C30.1437 32 30.7863 31.7338 31.2601 31.2601C31.7338 30.7863 32 30.1437 32 29.4737V23.5789C32 22.9089 31.7338 22.2663 31.2601 21.7926C30.7863 21.3188 30.1437 21.0526 29.4737 21.0526C27.5032 21.0526 25.5663 20.7495 23.7137 20.1263C23.2708 19.9865 22.798 19.9707 22.3467 20.0805C21.8954 20.1904 21.4828 20.4217 21.1537 20.7495L18.7284 23.1747C14.5385 20.8883 11.0949 17.4446 8.80842 13.2547L11.2168 10.8463C11.9074 10.1895 12.16 9.21263 11.8568 8.26947C11.2505 6.43368 10.9474 4.49684 10.9474 2.52632C10.9474 1.8563 10.6812 1.21372 10.2074 0.739941C9.73365 0.266165 9.09107 0 8.42105 0H2.52632C1.8563 0 1.21372 0.266165 0.739941 0.739941C0.266165 1.21372 0 1.8563 0 2.52632C0 18.7789 13.2211 32 29.4737 32ZM2.52632 1.68421H8.42105C8.64439 1.68421 8.85859 1.77293 9.01651 1.93086C9.17444 2.08878 9.26316 2.30298 9.26316 2.52632C9.26316 4.68211 9.6 6.78737 10.2568 8.79158C10.3411 9.02737 10.3242 9.36421 10.0547 9.63369L6.73684 12.9347C9.51579 18.3747 13.5916 22.4505 19.0484 25.2632L22.3326 21.9453C22.5684 21.7095 22.8884 21.6421 23.1916 21.7263C25.2126 22.4 27.3179 22.7368 29.4737 22.7368C29.697 22.7368 29.9112 22.8256 30.0691 22.9835C30.2271 23.1414 30.3158 23.3556 30.3158 23.5789V29.4737C30.3158 29.697 30.2271 29.9112 30.0691 30.0691C29.9112 30.2271 29.697 30.3158 29.4737 30.3158C14.1474 30.3158 1.68421 17.8526 1.68421 2.52632C1.68421 2.30298 1.77293 2.08878 1.93086 1.93086C2.08878 1.77293 2.30298 1.68421 2.52632 1.68421Z" fill="url(#paint0_linear_311_4201)"/>
<defs>
<linearGradient id="paint0_linear_311_4201" x1="0" y1="16" x2="32" y2="16" gradientUnits="userSpaceOnUse">
<stop stop-color="#0383CA"/>
<stop offset="1" stop-color="#EF3A61"/>
</linearGradient>
</defs>
</svg>
