<svg width="143" height="143" viewBox="0 0 143 143" fill="none" xmlns="http://www.w3.org/2000/svg">
<path d="M55.5753 53.4225C55.4589 53.1837 55.3156 52.8545 55.2144 52.6111C53.8038 49.2152 54.584 44.1984 55.9648 40.8694C56.8855 38.65 59.5687 35.7732 61.4254 34.1853C61.8987 33.7806 65.2964 31.9665 65.9311 31.722C69.2976 30.4261 73.7609 30.2971 77.2444 31.2135C77.9619 31.4025 79.0773 31.9107 79.7855 32.1776C83.1137 33.4323 86.8943 36.936 88.2439 40.2368C87.5856 40.3944 86.1301 40.8608 85.5141 41.1168C84.715 39.9937 83.7451 38.7447 82.7104 37.8492C79.7443 35.2821 75.9176 33.4815 71.9299 33.7394C68.5165 33.9122 65.7066 34.9515 63.0433 37.071C61.2655 38.4859 60.8843 38.8394 59.7906 40.8497C58.5305 43.1666 57.6946 45.295 57.7669 48.0123C57.7758 48.3515 57.8624 48.582 58.1173 48.7968C58.4027 48.8951 58.7779 48.9266 59.0756 48.878C61.9866 48.4035 64.9146 47.7137 67.8078 47.1614C67.6731 46.0203 67.2727 43.3745 67.3696 42.1718C67.3865 41.9622 68.0752 41.7237 68.3149 41.6276C68.6117 43.3719 68.7888 45.1202 69.005 46.8777C70.9581 46.7499 73.9865 45.8841 75.9625 45.3364C76.1024 44.0297 76.1653 42.3955 76.3995 41.1494L77.3608 41.5487C77.4045 42.6352 77.1757 43.8281 77.1917 44.9123C77.7563 44.9317 78.6818 44.5065 79.2378 44.3563C81.0304 43.875 82.7816 43.2881 84.5491 42.7278C85.3782 42.4659 86.3217 42.3678 87.1391 42.0943C89.9717 41.1468 92.7879 39.9791 95.5123 38.7576C96.1684 38.4075 97.7972 37.5535 98.4802 37.5447C98.3915 37.7154 96.296 39.0293 95.9282 39.2913C93.7368 40.8645 91.309 41.9185 88.9767 43.1849C85.8407 44.8874 82.858 46.4802 79.563 47.879C77.45 48.7762 75.3133 50.0552 73.1669 50.9438C72.2048 51.4042 70.9681 51.6793 70.042 52.1535C67.762 53.321 65.3942 54.2408 63.0425 55.2512C62.1484 55.6356 61.0897 55.8278 60.181 56.1976C57.1234 57.3236 50.1256 60.4607 47.1366 58.4973C46.556 57.4059 46.538 56.314 46.8586 55.1262C47.2006 53.8578 48.9421 51.8192 50.0215 51.1279C50.1636 51.2598 50.3289 51.3788 50.3904 51.5541C49.5324 53.2661 49.5427 55.6919 52.028 55.7814C57.6554 55.9848 63.1205 53.6957 68.2431 51.6233C69.6794 51.0424 71.3033 50.5823 72.6383 49.8204L72.6638 49.7062C72.1616 49.6327 68.9384 50.8605 68.0898 51.015C63.8813 51.7803 59.8275 52.8308 55.5753 53.4225Z" fill="#1A1A1A" fill-opacity="0.7"/>
<path d="M95.5127 38.7576C96.1688 38.4075 97.7976 37.5535 98.4805 37.5447C98.3919 37.7154 96.2963 39.0293 95.9285 39.2913L95.9683 39.186L95.8822 39.0198L96.0284 39.0516C96.2566 38.9298 96.4205 38.7787 96.4159 38.5208C95.9594 38.5768 96.0158 38.9572 95.5127 38.7576Z" fill="#7B8595" fill-opacity="0.6"/>
<path d="M102.378 37.9516C102.478 38.0117 102.443 37.9925 102.509 38.1078C102.368 38.4596 98.9479 41.3121 98.4131 41.6585C96.1385 43.0419 93.9955 44.991 91.6849 46.2977C89.169 47.7205 86.6971 49.3187 84.1774 50.6992C81.5153 52.1575 78.6945 53.3447 76.0948 54.936C76.0473 57.9859 75.4722 61.2229 75.2748 64.2791C75.2165 65.1823 75.143 66.1793 75.0189 67.069C75.9455 67.033 77.0386 67.0613 77.9775 67.0627C79.1378 66.322 79.497 65.2938 79.8417 64.0426C80.8821 60.2625 83.779 57.9459 85.636 54.6558C86.3061 53.4686 86.3184 51.7795 86.8527 50.7344C87.0311 50.3861 89.5594 48.9738 90.0796 48.6071L90.1749 48.5396C90.472 52.5213 88.3496 57.1497 85.7064 60.0689C85.0414 60.8033 84.6036 61.3933 84.0868 62.2393C83.6744 62.9598 83.0229 64.1284 82.8141 64.9392C82.5106 66.1181 82.5804 66.9535 81.9115 68.0772C81.3549 69.0112 79.9389 69.9582 78.9099 70.2064C78.3279 70.3466 76.7732 70.3014 76.1154 70.2994L71.9069 70.2914C69.9632 70.2931 67.9984 70.3815 66.0805 70.2685C63.2788 70.1038 62.7254 67.2786 61.9687 65.1359C61.614 64.1318 61.1321 63.4217 60.6522 62.5631C60.2758 61.8893 58.2335 59.8958 58.1743 59.4606C58.2553 59.3107 58.3914 59.208 58.5536 59.16C61.1848 58.3798 63.6953 57.357 66.2152 56.2774C66.9231 55.9745 67.735 55.788 68.4517 55.4963C70.9042 54.4979 73.28 53.3547 75.6506 52.1787C76.5109 51.7694 77.407 51.4328 78.2781 51.0493C80.4995 50.0709 82.5881 48.8637 84.7394 47.756C86.5389 46.8294 88.3959 46.0065 90.16 44.9975C91.1547 44.4287 92.1262 43.8312 93.1244 43.2712C93.9786 42.7968 94.9742 42.4021 95.7993 41.9288C97.0835 41.1923 98.4085 40.4424 99.6663 39.6665C100.608 39.0856 101.387 38.4845 102.378 37.9516ZM65.6178 65.9842C65.9266 66.4936 66.0705 66.7072 66.5773 67.0644C67.6169 67.0467 68.6688 66.9995 69.703 66.9872C69.4599 64.4458 69.2308 61.9016 69.0375 59.3559C69.0109 59.0021 68.9963 58.6952 69.0123 58.3386L68.9445 58.2147L68.857 58.2047C68.0104 58.6114 64.3433 60.2122 63.558 60.4227C65.052 62.2917 64.6988 63.8146 65.6178 65.9842ZM70.174 57.5178C70.4206 58.4893 70.6476 60.4318 70.7835 61.474L71.4015 66.0111L71.5322 67.087C72.2141 67.0639 72.8965 67.0604 73.5786 67.077C73.6206 63.1082 74.4051 59.5003 74.6791 55.633L74.6019 55.5649C73.1092 56.157 71.6166 56.9686 70.174 57.5178Z" fill="#1A1A1A" fill-opacity="0.7"/>
<path d="M84.2379 85.3307C86.3057 85.1382 88.3983 85.8987 90.0506 87.1076C91.2515 88.0036 91.9096 89.5234 92.3632 90.9214C94.3085 96.9157 91.7039 103.172 85.1179 103.947C79.1025 104.145 76.6975 100.554 76.1873 95.0075C75.9385 92.3002 76.745 89.808 78.4764 87.6962C79.671 86.2396 82.4387 85.4542 84.2379 85.3307ZM85.0687 100.219C87.2826 99.6699 88.4838 98.0437 88.7278 95.772C89.073 92.5533 88.1961 88.7035 84.1246 88.8279C83.0393 88.9549 82.5127 89.2989 81.81 90.1626C79.7345 92.7135 79.6253 97.4419 82.3351 99.5964C83.0593 100.172 83.9327 100.376 84.8559 100.251C84.9269 100.241 84.9978 100.231 85.0687 100.219Z" fill="#1A1A1A" fill-opacity="0.7"/>
<path d="M97.4074 85.6175C98.0818 85.5912 98.4267 85.611 99.1005 85.6773C100.074 86.9629 100.64 88.233 101.509 89.498C102.98 91.639 104.265 93.4482 105.464 95.7591C105.626 94.8039 105.577 92.811 105.58 91.7869L105.606 85.6596C106.974 85.6153 108.503 85.5752 109.865 85.6828C109.969 87.5489 109.894 90.1029 109.892 92.0065L109.881 103.537L108.841 103.542C107.893 103.567 106.945 103.562 105.997 103.527C105.363 102.84 105.017 101.852 104.505 101.1C103.185 99.1625 101.898 97.1954 100.606 95.2377C100.369 94.8771 100.183 94.1378 99.8084 93.977L99.6943 94.0445C99.5816 94.7384 99.6474 96.4592 99.6414 97.2043C99.6239 99.3089 99.6697 101.432 99.5936 103.536C98.2434 103.543 96.8929 103.541 95.5424 103.531C95.3579 100.637 95.5982 97.4682 95.5101 94.5456C95.5112 91.9696 95.4812 89.3916 95.5221 86.8162C95.545 85.3882 96.2222 85.6476 97.4074 85.6175Z" fill="#1A1A1A" fill-opacity="0.7"/>
<path d="M39.1919 85.6873C39.9855 85.6427 42.8186 85.5558 43.4676 85.8217C44.057 86.3846 45.9458 92.3983 46.4197 93.5506C46.5446 93.8543 47.0786 95.85 47.2442 96.3437C47.6068 97.419 47.9801 98.4907 48.3639 99.5589C48.8724 100.954 49.35 102.008 49.5731 103.499C48.5029 103.641 46.4651 103.634 45.3715 103.553C45.0254 102.885 44.4122 100.858 44.2014 100.089C43.8514 100.095 43.4839 100.089 43.1324 100.089C41.5365 100.068 39.6289 100.012 38.0584 100.091C37.9375 101.126 37.6429 102.317 37.2405 103.269C37.0454 103.731 35.6283 103.641 35.1756 103.623C34.6047 103.6 33.2431 103.735 32.8026 103.488C32.796 103.463 32.7869 103.439 32.7829 103.414C32.5993 102.212 36.6602 91.6733 37.2491 89.9673C37.6146 88.9074 37.8934 86.8004 38.5332 85.9799C38.7142 85.7474 38.9205 85.7279 39.1919 85.6873ZM39.1533 96.5184L41.3452 96.5273C41.9861 96.5236 42.5329 96.5096 43.1721 96.4664C42.933 95.9822 42.7989 95.6656 42.6631 95.1717C42.4431 94.3717 41.7035 90.9583 41.2142 90.4947C40.4034 92.5299 39.9072 94.6703 39.1533 96.5184Z" fill="#1A1A1A" fill-opacity="0.7"/>
<path d="M51.3466 85.6959C52.2366 85.6007 53.9929 85.647 54.9313 85.6664C55.5822 86.7264 56.0244 87.7194 56.597 88.8159C57.0634 89.7096 57.5985 90.5982 58.0839 91.492C59.0546 90.2547 60.0985 87.2334 61.122 85.7685C62.2326 85.5383 64.8875 85.6722 66.0713 85.7517C65.817 86.5184 65.3491 86.9926 64.9948 87.675C63.7287 90.1117 62.1496 92.3051 60.7222 94.6514C61.1155 95.3372 61.6666 96.0205 62.0621 96.6854C63.2991 98.7658 65.12 101.414 66.0899 103.589C65.5974 103.631 65.112 103.629 64.6181 103.635C63.5396 103.657 62.4388 103.63 61.3548 103.637C61.0268 103.13 60.7225 102.607 60.4525 102.067C59.7066 100.576 58.7766 99.1988 57.9297 97.7645C57.5768 98.3197 57.2751 98.9377 56.9216 99.4851C56.0733 100.798 55.5302 102.27 54.7202 103.593C53.9912 103.634 50.5049 103.725 49.9718 103.516L49.9312 103.39C51.1186 100.928 53.7799 96.9185 55.3551 94.6703C54.6032 93.5114 50.3556 86.6434 50.341 85.8569C50.5515 85.6885 51.0523 85.7108 51.3466 85.6959Z" fill="#1A1A1A" fill-opacity="0.7"/>
<path d="M68.8323 85.7328C70.2809 85.7171 71.7295 85.7125 73.1781 85.7194C73.2536 86.759 73.209 88.2828 73.209 89.3578V96.0165L73.2078 101.114C73.2078 101.602 73.2716 103.299 73.1263 103.638C71.7332 103.592 70.2169 103.647 68.8063 103.636C68.7379 102.455 68.7834 100.763 68.7828 99.5523L68.7806 91.8749L68.7803 87.9413C68.7794 87.417 68.7451 86.1629 68.8323 85.7328Z" fill="#1A1A1A" fill-opacity="0.7"/>
<path d="M65.5988 71.9496C69.9432 71.8126 74.4093 71.9856 78.766 71.943C79.8905 71.9319 80.0618 72.3772 80.0287 73.4056C80.0024 74.2199 80.2818 75.0155 79.1681 75.095C76.9996 75.2083 74.0012 75.085 71.7658 75.0916L67.9443 75.1156C67.5062 75.1196 64.9731 75.2661 64.8472 74.8333C64.6713 74.227 64.6336 72.8911 64.8712 72.2762C64.9473 72.0792 65.4058 71.9916 65.5988 71.9496Z" fill="#1A1A1A" fill-opacity="0.7"/>
<path d="M76.6291 76.6835C77.2408 76.6849 78.1666 76.5977 78.6351 76.9492C79.2683 78.0134 78.7278 80.2299 77.3292 80.4183C76.2993 80.5568 75.1934 80.5102 74.1486 80.5102L68.3234 80.495C66.9929 80.3483 66.0717 80.0497 65.9152 78.4999C65.8681 78.2319 65.8372 77.0945 66.1051 76.9646C66.9242 76.5679 69.5709 76.7015 70.4112 76.7018C72.4838 76.7084 74.5567 76.7023 76.6291 76.6835Z" fill="#1A1A1A" fill-opacity="0.7"/>
<path d="M71.7816 106.917C72.6499 106.81 72.8478 106.883 73.5593 107.34C74.0415 108.691 74.0587 110.04 72.476 110.512C71.6806 110.488 71.0603 110.262 70.7011 109.491C70.4868 109.034 70.4645 108.51 70.6384 108.035C70.8672 107.419 71.2144 107.165 71.7816 106.917ZM72.5214 109.798C73.4961 109.195 73.4278 107.626 72.0038 107.672C71.0262 108.314 71.3125 109.892 72.5214 109.798Z" fill="#1A1A1A" fill-opacity="0.7"/>
<path d="M78.6938 106.975C79.9073 106.969 81.4566 106.747 81.7117 108.435C81.8112 109.092 81.617 109.504 81.1874 109.988C80.4896 110.524 79.5281 110.408 78.6586 110.403C78.6383 109.714 78.5997 107.593 78.6938 106.975ZM80.5597 109.529C81.3113 108.477 80.7198 107.688 79.4992 107.658C79.48 108.242 79.319 109.27 79.6599 109.675C80.0125 109.8 80.2056 109.678 80.5597 109.529Z" fill="#1A1A1A" fill-opacity="0.7"/>
<path d="M73.0534 38.7393C73.1803 38.7919 73.2965 38.8628 73.4172 38.9297C73.809 38.8954 74.1522 38.9958 74.522 38.9829C75.2513 38.9581 75.9045 38.8657 76.6412 38.9163C77.0496 38.9446 77.1071 39.0061 77.4852 39.1912C77.8144 38.9812 77.9131 38.8671 78.2694 38.9375C78.9092 39.6848 77.4586 41.6362 76.1693 39.5907L76.111 39.5724L76.0558 39.6447L75.9697 39.7537C75.0642 40.9206 74.1256 40.7347 73.5536 39.4425C73.414 39.748 73.2987 39.9196 73.1203 40.1967C72.7373 40.4118 72.3369 40.5677 71.8988 40.4132C71.5845 40.3054 71.3279 40.074 71.1884 39.7723C71.1017 39.5893 71.0405 39.2955 71.1466 39.1128C71.4183 38.6452 71.9391 38.9861 72.272 39.1563L73.0534 38.7393Z" fill="#1A1A1A" fill-opacity="0.7"/>
<path d="M60.4889 106.949C62.0093 107.041 63.4711 106.52 62.9614 108.728C63.2826 109.387 63.4405 109.556 62.9485 110.182C62.3234 110.498 61.2243 110.412 60.499 110.405C60.4146 109.828 60.4126 107.522 60.4889 106.949ZM62.2853 108.339C62.3485 108.01 62.3914 108.05 62.3005 107.774C62.0322 107.56 61.6355 107.615 61.272 107.611C61.264 107.965 61.2054 108.062 61.3595 108.346C61.5958 108.492 62.0042 108.388 62.2853 108.339ZM62.396 109.645C62.4369 109.328 62.4726 109.42 62.3368 109.19C62.0385 109.041 61.5646 109.099 61.2011 109.103C61.2371 109.37 61.2234 109.501 61.4099 109.689C61.723 109.848 62.0505 109.727 62.396 109.645Z" fill="#1A1A1A" fill-opacity="0.7"/>
<path d="M77.1145 106.884C77.3187 106.92 77.7002 106.945 77.7359 107.248C77.8177 107.941 77.81 108.671 77.8049 109.369C77.8014 109.835 77.7943 110.378 77.2492 110.447C76.747 110.279 75.8792 108.905 75.5129 108.396C75.4897 108.962 75.605 109.517 75.5355 110.082C75.5017 110.358 75.4251 110.356 75.2171 110.51C74.9123 110.397 74.9134 110.454 74.7621 110.237C74.6878 109.676 74.6866 109.041 74.6869 108.473C74.6872 107.977 74.5593 107.089 75.1828 106.987C75.9382 107.231 76.545 108.603 76.8951 109.285C76.9094 108.702 76.7893 107.281 77.1145 106.884Z" fill="#1A1A1A" fill-opacity="0.7"/>
<path d="M39.098 106.838C40.0601 106.784 40.5812 107.274 40.8534 108.142C40.812 108.197 40.7705 108.252 40.729 108.307C40.125 108.191 39.5324 107.586 38.8877 107.745C38.3775 107.871 38.3235 108.826 38.4522 109.23C38.5062 109.399 38.8311 109.642 39.0084 109.668C39.2647 109.705 39.6351 109.744 39.8579 109.569C39.954 109.491 39.9191 109.501 39.9302 109.345L39.8336 109.253C39.5919 109.256 39.4383 109.288 39.2444 109.153C39.134 108.953 39.1769 108.858 39.2121 108.645C41.2896 107.951 41.3894 109.889 39.8324 110.439C39.0179 110.726 37.8032 110.236 37.7009 109.248C37.5636 107.925 37.702 107.143 39.098 106.838Z" fill="#1A1A1A" fill-opacity="0.7"/>
<path d="M55.8638 106.905C56.702 106.839 57.7811 107.104 57.6638 108.161L57.546 108.25C56.9137 108.181 56.4297 107.443 55.7894 107.796C55.2274 108.434 55.5091 109.851 56.5616 109.768C56.8124 109.597 56.7126 109.706 56.8447 109.404L56.7821 109.297C56.4847 109.265 56.4277 109.273 56.1641 109.149C56.0371 108.904 56.0702 108.998 56.1226 108.674C56.6265 108.6 57.2909 108.404 57.6947 108.735C58.1835 109.607 57.0944 110.796 55.9124 110.456C55.4888 110.336 55.1322 110.048 54.9248 109.66C54.557 108.972 54.7109 108.281 54.9037 107.579C55.2609 107.187 55.3736 107.123 55.8638 106.905Z" fill="#1A1A1A" fill-opacity="0.7"/>
<path d="M51.0259 106.907C51.9208 107.062 52.4673 108.335 52.9341 109.07C52.9298 108.537 52.808 107.35 53.2049 107.018C53.442 106.983 53.4323 106.995 53.6665 107.066C53.8813 107.369 53.8533 109.963 53.8173 110.448C53.716 110.452 53.3943 110.458 53.3133 110.441C52.7751 110.322 51.8459 108.821 51.4964 108.334C51.517 108.844 51.6419 110.174 51.283 110.525C51.1909 110.471 51.1157 110.448 51.0754 110.356C50.8297 109.791 50.9272 107.453 51.0259 106.907Z" fill="#1A1A1A" fill-opacity="0.7"/>
<path d="M100.191 106.837L100.413 106.932C100.666 107.415 100.589 108.583 100.62 109.156C100.641 109.567 100.728 110.467 100.179 110.47C99.7299 110.21 98.8361 108.8 98.5207 108.319C98.541 108.757 98.6702 110.138 98.4374 110.42L98.2738 110.429C97.9604 110.437 98.0236 110.483 97.8037 110.341C97.7133 109.983 97.604 107.497 97.8972 107.12C98.0393 106.938 98.0799 106.968 98.267 106.945C98.9302 107.205 99.6223 108.619 100.003 109.271C99.9876 108.515 99.7899 107.471 100.191 106.837Z" fill="#1A1A1A" fill-opacity="0.7"/>
<path d="M94.1173 106.977C94.8469 106.955 96.0595 106.804 96.566 107.402C96.9287 107.831 96.7702 108.847 96.3049 109.149C96.0592 109.185 95.5553 109.273 95.3288 109.261C95.227 109.271 95.1718 109.301 95.0722 109.337C94.9184 109.576 94.9921 109.876 94.9633 110.223C94.7914 110.449 94.8975 110.366 94.6278 110.475C94.3712 110.46 94.3898 110.462 94.1891 110.299C93.9886 109.976 94.1027 107.554 94.1173 106.977ZM94.9555 108.715L95.7889 108.553C95.9257 108.329 95.9708 108.283 96.0109 108.017C95.8584 107.608 95.4357 107.66 95.0268 107.593C94.9341 108.007 94.9538 108.294 94.9555 108.715Z" fill="#1A1A1A" fill-opacity="0.7"/>
<path d="M43.9889 106.885C44.103 106.891 44.5769 106.919 44.5949 107.047C44.7016 107.806 45.0894 110.093 44.3435 110.503C44.1331 110.501 44.1459 110.509 43.9746 110.388C43.7487 109.97 43.8499 109.522 43.8951 109.04C43.342 109.084 42.9965 109.08 42.4508 109.035C42.49 109.439 42.4805 109.914 42.4843 110.324C42.4156 110.451 42.4517 110.393 42.2955 110.481C42.0032 110.425 42.1136 110.494 41.9263 110.317C41.7435 109.761 41.698 107.25 42.1708 106.872L42.2838 106.934C42.5609 107.409 42.4854 107.769 42.4685 108.323C42.9985 108.323 43.404 108.314 43.9271 108.39C43.823 107.782 43.7747 107.459 43.9889 106.885Z" fill="#1A1A1A" fill-opacity="0.7"/>
<path d="M84.4403 106.992C85.1238 107.009 86.1571 106.839 86.702 107.125C86.8507 107.339 86.8184 107.223 86.8015 107.483C86.388 107.826 84.6454 107.3 85.1616 108.276C85.6661 108.568 86.3187 108.143 86.6193 108.669C86.5704 109.298 85.7676 109.074 85.2091 109.132L85.1427 109.139C85.1264 110.373 86.4795 109.307 86.8733 110.012C86.8616 110.328 86.9211 110.211 86.7683 110.415C86.3825 110.513 84.8916 110.451 84.3845 110.44C84.3159 109.876 84.1998 107.344 84.4403 106.992Z" fill="#1A1A1A" fill-opacity="0.7"/>
<path d="M91.064 106.899C91.644 106.966 93.1155 106.774 93.241 107.345C92.9691 107.901 92.1714 107.379 91.674 107.707C91.2076 108.671 92.6456 108.311 92.9819 108.599L92.9956 108.822C92.6693 109.408 92.0441 108.781 91.4973 109.336C91.8416 110.255 93.1395 109.341 93.328 110.075C93.1896 110.616 92.6442 110.447 92.1966 110.462C91.805 110.475 91.3695 110.441 90.9762 110.419C90.9239 109.821 90.7957 107.31 91.064 106.899Z" fill="#1A1A1A" fill-opacity="0.7"/>
<path d="M64.1746 106.948C65.1396 107.144 65.8543 106.705 66.5575 107.233L66.5415 107.49C65.9987 107.621 65.3807 107.479 64.9173 107.816C64.7935 108.072 64.8155 107.941 64.8444 108.22C65.2411 108.651 65.8769 108.21 66.2973 108.525C66.3739 108.754 66.3671 108.634 66.269 108.895C65.9361 109.152 65.3303 109.086 64.8747 109.091C64.8232 109.337 64.8244 109.319 64.8882 109.564C65.4141 110.048 66.172 109.508 66.5415 109.989C66.5315 110.268 66.5821 110.155 66.406 110.349C66.1051 110.456 64.5942 110.42 64.2736 110.361C64.0768 110.11 64.1423 107.393 64.1746 106.948Z" fill="#1A1A1A" fill-opacity="0.7"/>
<path d="M108.244 108.317C108.467 107.861 108.83 107.011 109.387 106.921C109.873 107.229 109.147 108.409 108.945 108.792C108.933 108.831 108.922 108.87 108.91 108.908C108.605 109.442 108.896 110.032 108.41 110.424C108.111 110.469 108.254 110.482 107.965 110.372C107.874 110.22 107.825 109.837 107.847 109.717C107.989 108.94 106.647 107.587 106.789 107.006L107.004 106.888C107.789 107.022 107.929 107.65 108.244 108.317Z" fill="#1A1A1A" fill-opacity="0.7"/>
<path d="M87.4818 106.991C87.9517 106.969 89.7832 106.882 90.1081 107.077C90.2577 107.341 90.262 107.424 90.0604 107.62C89.7518 107.719 89.4086 107.669 89.076 107.651C89.1366 108.333 89.1017 109.28 89.092 109.985C89.1017 110.181 89.1103 110.171 89.0345 110.35C88.8217 110.495 88.536 110.441 88.2649 110.429C88.2271 109.757 88.2237 108.324 88.2937 107.681C87.7858 107.678 87.6926 107.748 87.2178 107.509C87.072 107.318 87.1 107.42 87.1008 107.203C87.2664 107.059 87.2719 107.07 87.4818 106.991Z" fill="#1A1A1A" fill-opacity="0.7"/>
<path d="M67.2163 106.953C68.2774 106.978 68.3111 107.558 68.7661 108.439C68.9469 107.915 69.1299 107.062 69.766 106.934L69.8824 107.014C70.0125 107.515 69.6942 107.894 69.4282 108.369C68.9964 109.25 69.2143 110.047 68.8428 110.424L68.5216 110.383C68.2868 110.097 68.4401 109.515 68.3266 109.222C68.0074 108.397 67.3287 107.875 67.2163 106.953Z" fill="#1A1A1A" fill-opacity="0.7"/>
<path d="M46.5044 107.648C46.1452 107.684 45.6592 107.789 45.3704 107.59C45.2975 107.332 45.2877 107.454 45.3944 107.213C45.8517 106.846 48.2939 106.614 48.2536 107.501C47.8246 107.856 47.5683 107.571 47.1121 107.702C47.1768 108.315 47.2877 110.106 46.8727 110.517L46.7635 110.498C46.3296 110.002 46.4703 108.324 46.5044 107.648Z" fill="#1A1A1A" fill-opacity="0.7"/>
<path d="M103.439 106.971C103.921 106.974 105.769 106.859 106.058 107.058C106.13 107.285 106.118 107.273 106.075 107.511C105.765 107.768 105.401 107.666 104.974 107.634C105.041 108.175 105.024 108.776 105.022 109.326C105.037 109.654 105.096 110.061 104.972 110.345C104.759 110.495 104.879 110.455 104.59 110.432C104.334 110.169 104.39 108.252 104.376 107.696C103.965 107.677 103.59 107.732 103.314 107.401C103.291 107.185 103.332 107.162 103.439 106.971Z" fill="#1A1A1A" fill-opacity="0.7"/>
<path d="M32.9937 106.908C33.3085 106.96 33.2276 106.903 33.4455 107.088C33.6752 107.665 33.5797 109.092 33.5176 109.736C33.7879 109.735 34.0581 109.736 34.3281 109.74C34.6613 109.749 34.9862 109.737 35.2236 109.986C35.2756 110.26 35.2854 110.125 35.1621 110.401C34.5252 110.499 33.6249 110.463 32.9651 110.448C32.8984 109.767 32.8667 107.538 32.9937 106.908Z" fill="#1A1A1A" fill-opacity="0.7"/>
<path d="M36.0203 106.966C36.2794 106.956 36.5872 106.906 36.7668 107.102C36.8829 107.863 36.7925 109.315 36.8059 110.133C36.8097 110.356 36.7796 110.345 36.6655 110.443C36.3689 110.445 36.3069 110.459 36.03 110.373C35.8361 110.094 35.8321 107.317 36.0203 106.966Z" fill="#1A1A1A" fill-opacity="0.7"/>
<path d="M67.1112 39.2544C67.566 38.9555 67.7327 38.7747 68.2672 38.862C68.3164 39.4234 68.2938 39.5263 68.1534 40.0637C67.9627 40.2805 67.4275 40.4905 67.1413 40.5191C66.4457 40.5888 65.5563 39.5221 66.1603 38.9401C66.5781 38.8508 66.7517 39.025 67.1112 39.2544Z" fill="#1A1A1A" fill-opacity="0.7"/>
<path d="M49.1462 106.895C49.4036 106.932 49.4671 106.944 49.715 107.019C49.9004 107.34 49.9567 110.047 49.7479 110.422C49.4885 110.437 49.2875 110.484 49.0692 110.357C49.0469 110.302 49.006 110.209 49.0063 110.157C49.0115 109.465 48.8041 107.388 49.1462 106.895Z" fill="#1A1A1A" fill-opacity="0.7"/>
<path d="M53.3966 33.766C54.0419 33.8658 56.2778 35.8487 56.5755 36.59C56.609 36.6729 56.4666 36.8594 56.4199 36.9378C56.0298 36.8437 53.5354 34.6592 53.2219 34.2262C53.1993 33.9548 53.1993 34.0477 53.3966 33.766Z" fill="#1A1A1A" fill-opacity="0.7"/>
<path d="M69.6225 39.0931C70.0887 38.9112 70.4693 38.6472 70.8303 39.1182C71.0302 39.9699 70.1619 40.3749 69.4875 40.5133C69.1669 40.3266 68.9919 40.2353 68.7448 39.9453C68.6641 39.5587 68.6181 39.275 68.6727 38.8811C69.0805 38.8188 69.2401 38.916 69.6225 39.0931Z" fill="#1A1A1A" fill-opacity="0.7"/>
<path d="M71.8136 24.5479C71.9506 24.5856 72.2469 24.6503 72.2529 24.8235C72.2793 25.5831 72.4677 28.5669 72.1328 29.0996C71.9658 29.0493 71.9077 29.0167 71.7499 28.9386C71.5588 28.5591 71.5073 24.9023 71.8136 24.5479Z" fill="#1A1A1A" fill-opacity="0.7"/>
<path d="M82.0582 26.716L82.2573 26.8266C82.5753 27.458 81.1507 30.4158 80.6642 30.8583C80.5418 30.7773 80.3957 30.6572 80.4214 30.4976C80.565 29.6079 81.4811 27.268 82.0582 26.716Z" fill="#1A1A1A" fill-opacity="0.7"/>
<path d="M61.2286 27.1897C61.653 27.2301 61.8449 27.5134 62.0514 27.8718C62.4615 28.584 63.6604 30.2085 63.5077 31.0396L63.2432 31.0176C62.704 30.6624 61.0993 27.9701 61.2286 27.1897Z" fill="#1A1A1A" fill-opacity="0.7"/>
<path d="M101.757 106.979C102.014 106.964 102.257 106.919 102.485 107.028C102.534 107.479 102.58 110.176 102.431 110.46C102.161 110.469 102.056 110.494 101.806 110.387C101.609 110.045 101.694 107.475 101.757 106.979Z" fill="#1A1A1A" fill-opacity="0.7"/>
<path d="M48.9794 43.8281C49.5557 43.8081 52.5598 44.3211 53.0109 44.5926C53.1324 44.8174 53.1138 44.7004 53.0595 44.9569C52.3828 45.0015 49.5154 44.7636 48.9946 44.3223C48.8864 44.0432 48.9088 44.1541 48.9794 43.8281Z" fill="#1A1A1A" fill-opacity="0.7"/>
<path d="M89.7269 32.6686C89.8485 32.6646 89.8613 32.6847 89.9849 32.7221L90.0278 32.8734C89.8416 33.3513 87.7326 35.1812 87.2098 35.6545C87.0357 35.6965 86.9748 35.6862 86.8641 35.5773C86.8343 34.7224 89.0268 33.0038 89.7269 32.6686Z" fill="#1A1A1A" fill-opacity="0.7"/>
<path d="M66.3892 75.8878C66.8531 75.7977 70.6211 75.8526 71.3227 75.8787C73.216 75.9493 75.4768 75.8126 77.3172 75.9067L77.3624 75.9896C76.5819 76.0666 75.4519 76.0202 74.6405 76.0182L69.6604 76.0228C68.7195 76.0302 67.5477 76.0774 66.5899 76.0812C66.475 76.0817 66.4721 76.0148 66.3892 75.8878Z" fill="#030003" fill-opacity="0.6"/>
<path d="M95.3286 109.261C95.5551 109.273 96.0591 109.185 96.3047 109.149C96.4477 109.706 96.9125 109.949 96.962 110.297C96.315 110.957 95.6996 109.602 95.3286 109.261Z" fill="#1A1A1A" fill-opacity="0.7"/>
<path d="M59.4429 53.5484C60.5039 53.2758 61.4915 53.2272 62.4759 52.9066C61.5307 53.4714 60.9155 53.5976 59.8496 53.8896C59.7257 53.639 59.7446 53.7105 59.4429 53.5484Z" fill="#030003" fill-opacity="0.6"/>
<path d="M58.9902 54.1615C58.5678 54.2107 58.0183 54.5102 57.6411 54.3786L57.676 54.1756C58.2251 54.0054 58.2268 53.8026 58.6258 53.778C58.7153 53.9982 58.7948 54.0266 58.9902 54.1615Z" fill="#030003" fill-opacity="0.6"/>
<path d="M58.6255 53.778C58.9352 53.7077 59.1409 53.6482 59.4426 53.5484C59.7443 53.7105 59.7254 53.639 59.8493 53.8896C59.605 53.9622 59.2132 54.0657 58.9899 54.1615C58.7945 54.0266 58.715 53.9982 58.6255 53.778Z" fill="#030003" fill-opacity="0.6"/>
<path d="M68.2672 38.862C68.4699 38.8871 68.4748 38.9014 68.6727 38.8811C68.6181 39.275 68.6641 39.5587 68.7448 39.9453L68.512 39.7775C68.292 39.8358 68.3358 39.8544 68.1533 40.0637C68.2937 39.5263 68.3163 39.4234 68.2672 38.862Z" fill="#FFF4F6" fill-opacity="0.6"/>
<path d="M51.0654 50.3975C50.8352 50.7799 50.6101 51.1654 50.3904 51.5541C50.3289 51.3788 50.1636 51.2598 50.0215 51.1279C50.3527 50.8831 50.7116 50.5994 51.0654 50.3975Z" fill="#3B5470" fill-opacity="0.6"/>
<path d="M79.1865 54.042L79.3158 54.1512C79.1805 54.4475 79.1176 54.3514 78.8302 54.6031L78.7495 54.6746L78.6065 54.5625L78.606 54.4292C78.8039 54.2828 78.978 54.1733 79.1865 54.042Z" fill="#030003" fill-opacity="0.6"/>
<path d="M77.9634 71.0407C78.3323 70.9846 78.5823 70.9074 78.8783 71.1148C78.6232 71.1534 78.1493 71.2423 77.9634 71.0407Z" fill="#030003" fill-opacity="0.6"/>
<path d="M65.2656 71.0353C65.6806 70.9609 65.92 71.0038 66.3318 71.1073C65.9034 71.1597 65.6128 71.2526 65.2656 71.0353Z" fill="#030003" fill-opacity="0.6"/>
</svg>
